<?xml version="1.0" standalone="no"?>
<!DOCTYPE svg PUBLIC "-//W3C//DTD SVG 20010904//EN" "http://www.w3.org/TR/2001/REC-SVG-20010904/DTD/svg10.dtd">
<svg version="1.0" xmlns="http://www.w3.org/2000/svg" width="600.000000pt" height="600.000000pt" viewBox="0 0 600.000000 600.000000" preserveAspectRatio="xMidYMid meet">
	<metadata>
Created by potrace 1.11, written by Peter Selinger 2001-2013
</metadata>
	<g transform="translate(0.000000,600.000000) scale(0.100000,-0.100000)" fill="#000000" stroke="none">
		<path d="M1903 5873 c2 -5 27 -55 55 -113 27 -58 100 -208 162 -335 62 -126
145 -297 185 -380 40 -82 125 -258 190 -390 64 -132 148 -303 185 -380 37 -77
114 -234 170 -350 56 -115 140 -286 185 -380 45 -93 128 -262 183 -375 54
-113 141 -290 192 -395 51 -104 134 -275 185 -380 51 -104 130 -266 175 -360
101 -207 340 -698 562 -1155 61 -124 152 -310 202 -415 l92 -190 682 0 c393 0
682 4 682 9 0 10 -24 61 -205 431 -70 143 -171 350 -225 460 -54 110 -150 308
-215 440 -65 132 -148 303 -185 380 -37 77 -125 257 -195 400 -70 143 -160
328 -200 410 -40 83 -128 263 -195 400 -67 138 -164 336 -215 440 -51 105
-141 289 -200 410 -128 261 -274 562 -395 810 -48 99 -152 311 -230 470 -78
160 -169 347 -203 418 l-61 127 -684 0 c-376 0 -681 -3 -679 -7z" />
		<path d="M769 1809 c-287 -28 -542 -200 -671 -452 -71 -138 -93 -236 -92 -407
3 -297 151 -552 416 -712 55 -34 149 -75 188 -83 8 -2 35 -9 60 -16 103 -29
322 -17 444 25 221 76 404 241 500 447 150 325 73 733 -183 967 -108 100 -260
186 -366 208 -144 29 -191 33 -296 23z" />
	</g>
</svg>
